<svg id="visual" viewBox="0 0 900 600" width="900" height="600" xmlns="http://www.w3.org/2000/svg" xmlns:xlink="http://www.w3.org/1999/xlink" version="1.1"><g stroke-width="1" stroke-linejoin="bevel"><path d="M438 280L481 237L415 238Z" fill="#001b35" stroke="#001b35"></path><path d="M481 237L413 192L415 238Z" fill="#002d5f" stroke="#002d5f"></path><path d="M438 280L485 302L481 237Z" fill="#001b35" stroke="#001b35"></path><path d="M528 199L487 189L481 237Z" fill="#002d5f" stroke="#002d5f"></path><path d="M481 237L487 189L413 192Z" fill="#2d4cb5" stroke="#2d4cb5"></path><path d="M438 280L483 311L485 302Z" fill="#5958de" stroke="#5958de"></path><path d="M487 189L418 176L413 192Z" fill="#2d4cb5" stroke="#2d4cb5"></path><path d="M413 192L363 237L415 238Z" fill="#001b35" stroke="#001b35"></path><path d="M415 238L363 237L438 280Z" fill="#17459f" stroke="#17459f"></path><path d="M438 280L428 354L483 311Z" fill="#001b35" stroke="#001b35"></path><path d="M371 185L363 237L413 192Z" fill="#2d4cb5" stroke="#2d4cb5"></path><path d="M511 345L532 282L485 302Z" fill="#715df2" stroke="#715df2"></path><path d="M485 302L532 282L481 237Z" fill="#17459f" stroke="#17459f"></path><path d="M549 242L528 199L481 237Z" fill="#5958de" stroke="#5958de"></path><path d="M418 176L371 185L413 192Z" fill="#002d5f" stroke="#002d5f"></path><path d="M532 282L549 242L481 237Z" fill="#4252ca" stroke="#4252ca"></path><path d="M358 320L428 354L438 280Z" fill="#00244a" stroke="#00244a"></path><path d="M483 311L511 345L485 302Z" fill="#00244a" stroke="#00244a"></path><path d="M418 176L362 177L371 185Z" fill="#5958de" stroke="#5958de"></path><path d="M371 185L362 177L363 237Z" fill="#002d5f" stroke="#002d5f"></path><path d="M310 287L358 320L363 237Z" fill="#4252ca" stroke="#4252ca"></path><path d="M363 237L358 320L438 280Z" fill="#003574" stroke="#003574"></path><path d="M428 354L511 345L483 311Z" fill="#003574" stroke="#003574"></path><path d="M532 282L568 278L549 242Z" fill="#715df2" stroke="#715df2"></path><path d="M511 345L568 278L532 282Z" fill="#2d4cb5" stroke="#2d4cb5"></path><path d="M549 242L571 200L528 199Z" fill="#00244a" stroke="#00244a"></path><path d="M487 189L422 122L418 176Z" fill="#4252ca" stroke="#4252ca"></path><path d="M418 176L422 122L362 177Z" fill="#003d8a" stroke="#003d8a"></path><path d="M473 105L422 122L487 189Z" fill="#17459f" stroke="#17459f"></path><path d="M639 231L571 200L549 242Z" fill="#5958de" stroke="#5958de"></path><path d="M533 123L473 105L487 189Z" fill="#001b35" stroke="#001b35"></path><path d="M358 320L413 378L428 354Z" fill="#003d8a" stroke="#003d8a"></path><path d="M428 354L413 378L511 345Z" fill="#001b35" stroke="#001b35"></path><path d="M293 208L310 287L363 237Z" fill="#5958de" stroke="#5958de"></path><path d="M358 320L331 356L413 378Z" fill="#001b35" stroke="#001b35"></path><path d="M533 123L487 189L528 199Z" fill="#001122" stroke="#001122"></path><path d="M333 107L325 166L362 177Z" fill="#003574" stroke="#003574"></path><path d="M362 177L293 208L363 237Z" fill="#003574" stroke="#003574"></path><path d="M571 200L533 123L528 199Z" fill="#003574" stroke="#003574"></path><path d="M310 287L331 356L358 320Z" fill="#4252ca" stroke="#4252ca"></path><path d="M325 166L293 208L362 177Z" fill="#003d8a" stroke="#003d8a"></path><path d="M525 445L552 378L511 345Z" fill="#2d4cb5" stroke="#2d4cb5"></path><path d="M511 345L552 378L568 278Z" fill="#00244a" stroke="#00244a"></path><path d="M532 22L453 70L473 105Z" fill="#2d4cb5" stroke="#2d4cb5"></path><path d="M473 105L453 70L422 122Z" fill="#002d5f" stroke="#002d5f"></path><path d="M422 122L333 107L362 177Z" fill="#2d4cb5" stroke="#2d4cb5"></path><path d="M618 188L615 184L571 200Z" fill="#4252ca" stroke="#4252ca"></path><path d="M571 200L615 184L533 123Z" fill="#001122" stroke="#001122"></path><path d="M618 188L571 200L639 231Z" fill="#4252ca" stroke="#4252ca"></path><path d="M639 231L549 242L568 278Z" fill="#003574" stroke="#003574"></path><path d="M331 356L380 415L413 378Z" fill="#5958de" stroke="#5958de"></path><path d="M413 378L525 445L511 345Z" fill="#715df2" stroke="#715df2"></path><path d="M453 70L333 107L422 122Z" fill="#001122" stroke="#001122"></path><path d="M325 166L282 127L293 208Z" fill="#715df2" stroke="#715df2"></path><path d="M674 266L639 231L568 278Z" fill="#001122" stroke="#001122"></path><path d="M333 107L302 120L325 166Z" fill="#00244a" stroke="#00244a"></path><path d="M639 231L630 160L618 188Z" fill="#715df2" stroke="#715df2"></path><path d="M618 188L630 160L615 184Z" fill="#003d8a" stroke="#003d8a"></path><path d="M615 184L630 160L533 123Z" fill="#003d8a" stroke="#003d8a"></path><path d="M533 123L532 22L473 105Z" fill="#715df2" stroke="#715df2"></path><path d="M292 89L282 127L302 120Z" fill="#003574" stroke="#003574"></path><path d="M302 120L282 127L325 166Z" fill="#4252ca" stroke="#4252ca"></path><path d="M590 413L611 380L552 378Z" fill="#003d8a" stroke="#003d8a"></path><path d="M552 378L611 380L568 278Z" fill="#003574" stroke="#003574"></path><path d="M435 498L525 445L413 378Z" fill="#001b35" stroke="#001b35"></path><path d="M525 445L590 413L552 378Z" fill="#003574" stroke="#003574"></path><path d="M293 208L228 271L310 287Z" fill="#4252ca" stroke="#4252ca"></path><path d="M310 287L228 375L331 356Z" fill="#003d8a" stroke="#003d8a"></path><path d="M246 416L367 466L380 415Z" fill="#001122" stroke="#001122"></path><path d="M206 245L228 271L293 208Z" fill="#17459f" stroke="#17459f"></path><path d="M333 107L292 89L302 120Z" fill="#00244a" stroke="#00244a"></path><path d="M282 127L234 169L293 208Z" fill="#00244a" stroke="#00244a"></path><path d="M290 79L292 89L333 107Z" fill="#003d8a" stroke="#003d8a"></path><path d="M684 295L674 266L568 278Z" fill="#17459f" stroke="#17459f"></path><path d="M639 231L664 138L630 160Z" fill="#17459f" stroke="#17459f"></path><path d="M163 143L234 169L177 91Z" fill="#715df2" stroke="#715df2"></path><path d="M305 0L290 79L333 107Z" fill="#2d4cb5" stroke="#2d4cb5"></path><path d="M292 89L290 79L282 127Z" fill="#4252ca" stroke="#4252ca"></path><path d="M246 416L380 415L331 356Z" fill="#002d5f" stroke="#002d5f"></path><path d="M380 415L398 480L413 378Z" fill="#003574" stroke="#003574"></path><path d="M590 413L594 433L611 380Z" fill="#4252ca" stroke="#4252ca"></path><path d="M611 380L684 295L568 278Z" fill="#4252ca" stroke="#4252ca"></path><path d="M525 445L594 433L590 413Z" fill="#002d5f" stroke="#002d5f"></path><path d="M367 466L398 480L380 415Z" fill="#4252ca" stroke="#4252ca"></path><path d="M525 445L531 514L594 433Z" fill="#2d4cb5" stroke="#2d4cb5"></path><path d="M662 67L532 22L533 123Z" fill="#715df2" stroke="#715df2"></path><path d="M453 70L424 0L333 107Z" fill="#2d4cb5" stroke="#2d4cb5"></path><path d="M659 386L684 295L611 380Z" fill="#003574" stroke="#003574"></path><path d="M734 267L664 138L639 231Z" fill="#002d5f" stroke="#002d5f"></path><path d="M630 160L662 67L533 123Z" fill="#00244a" stroke="#00244a"></path><path d="M677 97L664 138L784 160Z" fill="#001122" stroke="#001122"></path><path d="M234 169L206 245L293 208Z" fill="#00244a" stroke="#00244a"></path><path d="M228 271L203 309L310 287Z" fill="#715df2" stroke="#715df2"></path><path d="M471 0L469 0L453 70Z" fill="#00244a" stroke="#00244a"></path><path d="M483 0L471 0L453 70Z" fill="#001b35" stroke="#001b35"></path><path d="M469 0L424 0L453 70Z" fill="#715df2" stroke="#715df2"></path><path d="M532 22L483 0L453 70Z" fill="#003d8a" stroke="#003d8a"></path><path d="M179 267L202 297L228 271Z" fill="#003574" stroke="#003574"></path><path d="M489 534L435 498L395 581Z" fill="#001122" stroke="#001122"></path><path d="M398 480L435 498L413 378Z" fill="#4252ca" stroke="#4252ca"></path><path d="M594 433L659 386L611 380Z" fill="#2d4cb5" stroke="#2d4cb5"></path><path d="M202 297L203 309L228 271Z" fill="#002d5f" stroke="#002d5f"></path><path d="M203 309L228 375L310 287Z" fill="#2d4cb5" stroke="#2d4cb5"></path><path d="M228 375L246 416L331 356Z" fill="#5958de" stroke="#5958de"></path><path d="M395 581L435 498L398 480Z" fill="#4252ca" stroke="#4252ca"></path><path d="M662 67L544 0L532 22Z" fill="#003d8a" stroke="#003d8a"></path><path d="M532 22L544 0L483 0Z" fill="#5958de" stroke="#5958de"></path><path d="M202 297L148 348L203 309Z" fill="#003574" stroke="#003574"></path><path d="M203 309L199 354L228 375Z" fill="#4252ca" stroke="#4252ca"></path><path d="M202 453L229 463L246 416Z" fill="#00244a" stroke="#00244a"></path><path d="M206 245L179 267L228 271Z" fill="#001122" stroke="#001122"></path><path d="M142 232L179 267L206 245Z" fill="#715df2" stroke="#715df2"></path><path d="M148 348L199 354L203 309Z" fill="#17459f" stroke="#17459f"></path><path d="M734 267L639 231L674 266Z" fill="#00244a" stroke="#00244a"></path><path d="M664 138L662 67L630 160Z" fill="#002d5f" stroke="#002d5f"></path><path d="M489 534L531 514L525 445Z" fill="#00244a" stroke="#00244a"></path><path d="M594 433L689 431L659 386Z" fill="#17459f" stroke="#17459f"></path><path d="M677 97L662 67L664 138Z" fill="#003574" stroke="#003574"></path><path d="M424 0L305 0L333 107Z" fill="#715df2" stroke="#715df2"></path><path d="M177 91L234 169L282 127Z" fill="#5958de" stroke="#5958de"></path><path d="M234 169L163 143L206 245Z" fill="#001b35" stroke="#001b35"></path><path d="M745 311L734 267L684 295Z" fill="#003574" stroke="#003574"></path><path d="M684 295L734 267L674 266Z" fill="#17459f" stroke="#17459f"></path><path d="M341 548L398 480L367 466Z" fill="#2d4cb5" stroke="#2d4cb5"></path><path d="M435 498L489 534L525 445Z" fill="#002d5f" stroke="#002d5f"></path><path d="M305 0L292 0L290 79Z" fill="#003d8a" stroke="#003d8a"></path><path d="M680 481L689 431L594 433Z" fill="#003574" stroke="#003574"></path><path d="M754 353L745 311L684 295Z" fill="#002d5f" stroke="#002d5f"></path><path d="M177 91L282 127L195 57Z" fill="#17459f" stroke="#17459f"></path><path d="M754 353L684 295L659 386Z" fill="#5958de" stroke="#5958de"></path><path d="M771 298L754 255L734 267Z" fill="#2d4cb5" stroke="#2d4cb5"></path><path d="M734 267L754 255L664 138Z" fill="#17459f" stroke="#17459f"></path><path d="M163 143L142 232L206 245Z" fill="#001b35" stroke="#001b35"></path><path d="M179 267L148 348L202 297Z" fill="#001122" stroke="#001122"></path><path d="M202 453L246 416L228 375Z" fill="#715df2" stroke="#715df2"></path><path d="M246 416L229 463L367 466Z" fill="#2d4cb5" stroke="#2d4cb5"></path><path d="M202 453L228 375L199 354Z" fill="#00244a" stroke="#00244a"></path><path d="M305 0L276 -9L292 0Z" fill="#002d5f" stroke="#002d5f"></path><path d="M292 0L276 -9L290 79Z" fill="#715df2" stroke="#715df2"></path><path d="M424 0L276 -9L305 0Z" fill="#715df2" stroke="#715df2"></path><path d="M469 0L276 -9L424 0Z" fill="#4252ca" stroke="#4252ca"></path><path d="M471 0L276 -9L469 0Z" fill="#002d5f" stroke="#002d5f"></path><path d="M483 0L276 -9L471 0Z" fill="#5958de" stroke="#5958de"></path><path d="M544 0L276 -9L483 0Z" fill="#715df2" stroke="#715df2"></path><path d="M195 57L282 127L290 79Z" fill="#00244a" stroke="#00244a"></path><path d="M276 -9L195 57L290 79Z" fill="#001b35" stroke="#001b35"></path><path d="M114 285L148 348L179 267Z" fill="#002d5f" stroke="#002d5f"></path><path d="M229 463L341 548L367 466Z" fill="#002d5f" stroke="#002d5f"></path><path d="M143 456L202 453L199 354Z" fill="#001122" stroke="#001122"></path><path d="M229 463L223 503L341 548Z" fill="#001b35" stroke="#001b35"></path><path d="M731 430L754 353L659 386Z" fill="#715df2" stroke="#715df2"></path><path d="M745 311L771 298L734 267Z" fill="#003574" stroke="#003574"></path><path d="M754 353L771 298L745 311Z" fill="#17459f" stroke="#17459f"></path><path d="M669 494L680 481L594 433Z" fill="#003d8a" stroke="#003d8a"></path><path d="M689 431L731 430L659 386Z" fill="#00244a" stroke="#00244a"></path><path d="M669 494L594 433L531 514Z" fill="#003574" stroke="#003574"></path><path d="M670 512L669 494L531 514Z" fill="#5958de" stroke="#5958de"></path><path d="M142 232L114 285L179 267Z" fill="#4252ca" stroke="#4252ca"></path><path d="M143 456L223 503L202 453Z" fill="#002d5f" stroke="#002d5f"></path><path d="M108 278L114 285L142 232Z" fill="#5958de" stroke="#5958de"></path><path d="M108 278L142 232L43 256Z" fill="#4252ca" stroke="#4252ca"></path><path d="M773 443L731 430L757 515Z" fill="#4252ca" stroke="#4252ca"></path><path d="M680 481L731 430L689 431Z" fill="#001b35" stroke="#001b35"></path><path d="M754 353L793 391L771 298Z" fill="#5958de" stroke="#5958de"></path><path d="M341 548L395 581L398 480Z" fill="#4252ca" stroke="#4252ca"></path><path d="M585 585L670 512L531 514Z" fill="#5958de" stroke="#5958de"></path><path d="M143 456L199 354L148 348Z" fill="#715df2" stroke="#715df2"></path><path d="M202 453L223 503L229 463Z" fill="#00244a" stroke="#00244a"></path><path d="M355 600L400 600L395 581Z" fill="#00244a" stroke="#00244a"></path><path d="M823 229L788 218L754 255Z" fill="#00244a" stroke="#00244a"></path><path d="M754 255L784 160L664 138Z" fill="#001122" stroke="#001122"></path><path d="M677 97L717 32L662 67Z" fill="#003574" stroke="#003574"></path><path d="M114 140L142 232L163 143Z" fill="#002d5f" stroke="#002d5f"></path><path d="M114 285L102 336L148 348Z" fill="#00244a" stroke="#00244a"></path><path d="M772 48L717 32L677 97Z" fill="#17459f" stroke="#17459f"></path><path d="M662 67L694 0L544 0Z" fill="#001b35" stroke="#001b35"></path><path d="M809 173L791 205L823 229Z" fill="#001b35" stroke="#001b35"></path><path d="M788 218L791 205L754 255Z" fill="#715df2" stroke="#715df2"></path><path d="M534 600L531 514L489 534Z" fill="#001b35" stroke="#001b35"></path><path d="M669 494L670 512L680 481Z" fill="#001b35" stroke="#001b35"></path><path d="M791 205L784 160L754 255Z" fill="#001122" stroke="#001122"></path><path d="M717 32L694 0L662 67Z" fill="#17459f" stroke="#17459f"></path><path d="M544 0L694 0L276 -9Z" fill="#003d8a" stroke="#003d8a"></path><path d="M717 32L696 0L694 0Z" fill="#2d4cb5" stroke="#2d4cb5"></path><path d="M694 0L696 0L276 -9Z" fill="#003574" stroke="#003574"></path><path d="M110 122L163 143L177 91Z" fill="#003d8a" stroke="#003d8a"></path><path d="M110 122L114 140L163 143Z" fill="#001b35" stroke="#001b35"></path><path d="M395 581L463 601L489 534Z" fill="#002d5f" stroke="#002d5f"></path><path d="M355 600L395 581L341 548Z" fill="#715df2" stroke="#715df2"></path><path d="M395 581L400 600L463 601Z" fill="#003574" stroke="#003574"></path><path d="M78 368L102 336L66 367Z" fill="#2d4cb5" stroke="#2d4cb5"></path><path d="M108 278L102 336L114 285Z" fill="#2d4cb5" stroke="#2d4cb5"></path><path d="M463 601L517 600L489 534Z" fill="#001b35" stroke="#001b35"></path><path d="M144 0L110 122L177 91Z" fill="#002d5f" stroke="#002d5f"></path><path d="M43 256L102 336L108 278Z" fill="#5958de" stroke="#5958de"></path><path d="M144 0L177 91L195 57Z" fill="#00244a" stroke="#00244a"></path><path d="M276 -9L184 0L195 57Z" fill="#001b35" stroke="#001b35"></path><path d="M632 609L534 600L517 600Z" fill="#715df2" stroke="#715df2"></path><path d="M517 600L534 600L489 534Z" fill="#4252ca" stroke="#4252ca"></path><path d="M543 600L585 585L531 514Z" fill="#003d8a" stroke="#003d8a"></path><path d="M266 600L355 600L341 548Z" fill="#17459f" stroke="#17459f"></path><path d="M400 600L355 600L463 601Z" fill="#00244a" stroke="#00244a"></path><path d="M632 609L543 600L534 600Z" fill="#2d4cb5" stroke="#2d4cb5"></path><path d="M534 600L543 600L531 514Z" fill="#5958de" stroke="#5958de"></path><path d="M823 229L791 205L788 218Z" fill="#003574" stroke="#003574"></path><path d="M791 205L809 173L784 160Z" fill="#001122" stroke="#001122"></path><path d="M784 160L772 48L677 97Z" fill="#002d5f" stroke="#002d5f"></path><path d="M823 229L754 255L771 298Z" fill="#003d8a" stroke="#003d8a"></path><path d="M78 368L143 456L148 348Z" fill="#003574" stroke="#003574"></path><path d="M223 503L266 600L341 548Z" fill="#715df2" stroke="#715df2"></path><path d="M773 443L793 391L731 430Z" fill="#001122" stroke="#001122"></path><path d="M731 430L793 391L754 353Z" fill="#001b35" stroke="#001b35"></path><path d="M900 238L823 229L911 323Z" fill="#003d8a" stroke="#003d8a"></path><path d="M757 515L731 430L680 481Z" fill="#17459f" stroke="#17459f"></path><path d="M792 442L773 443L757 515Z" fill="#003574" stroke="#003574"></path><path d="M867 71L772 48L784 160Z" fill="#4252ca" stroke="#4252ca"></path><path d="M717 32L768 0L696 0Z" fill="#00244a" stroke="#00244a"></path><path d="M823 229L823 169L809 173Z" fill="#5958de" stroke="#5958de"></path><path d="M809 173L823 169L784 160Z" fill="#2d4cb5" stroke="#2d4cb5"></path><path d="M143 456L198 542L223 503Z" fill="#2d4cb5" stroke="#2d4cb5"></path><path d="M66 367L102 336L43 256Z" fill="#5958de" stroke="#5958de"></path><path d="M102 336L78 368L148 348Z" fill="#003d8a" stroke="#003d8a"></path><path d="M183 600L217 600L198 542Z" fill="#002d5f" stroke="#002d5f"></path><path d="M276 -9L144 0L184 0Z" fill="#17459f" stroke="#17459f"></path><path d="M184 0L144 0L195 57Z" fill="#002d5f" stroke="#002d5f"></path><path d="M757 515L680 481L670 512Z" fill="#003d8a" stroke="#003d8a"></path><path d="M773 443L792 442L793 391Z" fill="#001122" stroke="#001122"></path><path d="M911 323L823 229L771 298Z" fill="#2d4cb5" stroke="#2d4cb5"></path><path d="M198 542L266 600L223 503Z" fill="#2d4cb5" stroke="#2d4cb5"></path><path d="M355 600L632 609L463 601Z" fill="#17459f" stroke="#17459f"></path><path d="M43 256L142 232L114 140Z" fill="#001b35" stroke="#001b35"></path><path d="M78 368L72 447L143 456Z" fill="#5958de" stroke="#5958de"></path><path d="M834 20L768 0L772 48Z" fill="#001122" stroke="#001122"></path><path d="M772 48L768 0L717 32Z" fill="#002d5f" stroke="#002d5f"></path><path d="M696 0L768 0L276 -9Z" fill="#4252ca" stroke="#4252ca"></path><path d="M0 237L43 256L0 141Z" fill="#001b35" stroke="#001b35"></path><path d="M43 256L114 140L0 141Z" fill="#4252ca" stroke="#4252ca"></path><path d="M543 600L632 609L585 585Z" fill="#5958de" stroke="#5958de"></path><path d="M585 585L655 600L670 512Z" fill="#001122" stroke="#001122"></path><path d="M463 601L632 609L517 600Z" fill="#17459f" stroke="#17459f"></path><path d="M79 610L632 609L355 600Z" fill="#5958de" stroke="#5958de"></path><path d="M696 600L757 515L670 512Z" fill="#00244a" stroke="#00244a"></path><path d="M632 609L655 600L585 585Z" fill="#2d4cb5" stroke="#2d4cb5"></path><path d="M198 542L217 600L266 600Z" fill="#17459f" stroke="#17459f"></path><path d="M266 600L79 610L355 600Z" fill="#001b35" stroke="#001b35"></path><path d="M113 511L198 542L143 456Z" fill="#5958de" stroke="#5958de"></path><path d="M-8 420L72 447L66 367Z" fill="#17459f" stroke="#17459f"></path><path d="M66 367L72 447L78 368Z" fill="#003574" stroke="#003574"></path><path d="M72 447L113 511L143 456Z" fill="#2d4cb5" stroke="#2d4cb5"></path><path d="M632 609L696 600L655 600Z" fill="#5958de" stroke="#5958de"></path><path d="M655 600L696 600L670 512Z" fill="#2d4cb5" stroke="#2d4cb5"></path><path d="M113 511L161 581L198 542Z" fill="#17459f" stroke="#17459f"></path><path d="M144 0L79 6L110 122Z" fill="#003574" stroke="#003574"></path><path d="M161 581L183 600L198 542Z" fill="#00244a" stroke="#00244a"></path><path d="M217 600L79 610L266 600Z" fill="#001122" stroke="#001122"></path><path d="M867 71L834 20L772 48Z" fill="#00244a" stroke="#00244a"></path><path d="M867 71L784 160L823 169Z" fill="#002d5f" stroke="#002d5f"></path><path d="M0 141L114 140L110 122Z" fill="#4252ca" stroke="#4252ca"></path><path d="M43 256L0 348L66 367Z" fill="#17459f" stroke="#17459f"></path><path d="M0 237L0 272L43 256Z" fill="#003574" stroke="#003574"></path><path d="M900 353L771 298L793 391Z" fill="#5958de" stroke="#5958de"></path><path d="M823 229L895 179L823 169Z" fill="#003574" stroke="#003574"></path><path d="M900 353L793 391L900 381Z" fill="#001b35" stroke="#001b35"></path><path d="M900 198L895 179L823 229Z" fill="#00244a" stroke="#00244a"></path><path d="M841 498L829 493L773 584Z" fill="#00244a" stroke="#00244a"></path><path d="M757 515L829 493L792 442Z" fill="#17459f" stroke="#17459f"></path><path d="M900 174L867 71L823 169Z" fill="#17459f" stroke="#17459f"></path><path d="M900 238L900 198L823 229Z" fill="#00244a" stroke="#00244a"></path><path d="M895 179L900 174L823 169Z" fill="#00244a" stroke="#00244a"></path><path d="M900 198L900 174L895 179Z" fill="#5958de" stroke="#5958de"></path><path d="M0 272L0 348L43 256Z" fill="#001122" stroke="#001122"></path><path d="M72 447L62 524L113 511Z" fill="#2d4cb5" stroke="#2d4cb5"></path><path d="M113 511L93 600L161 581Z" fill="#001b35" stroke="#001b35"></path><path d="M0 130L0 141L110 122Z" fill="#4252ca" stroke="#4252ca"></path><path d="M0 348L0 361L66 367Z" fill="#715df2" stroke="#715df2"></path><path d="M0 80L0 130L110 122Z" fill="#2d4cb5" stroke="#2d4cb5"></path><path d="M900 381L793 391L792 442Z" fill="#00244a" stroke="#00244a"></path><path d="M696 600L773 584L757 515Z" fill="#4252ca" stroke="#4252ca"></path><path d="M632 609L738 610L696 600Z" fill="#5958de" stroke="#5958de"></path><path d="M773 584L829 493L757 515Z" fill="#00244a" stroke="#00244a"></path><path d="M829 493L900 381L792 442Z" fill="#003574" stroke="#003574"></path><path d="M738 610L773 584L696 600Z" fill="#003574" stroke="#003574"></path><path d="M900 353L911 323L771 298Z" fill="#17459f" stroke="#17459f"></path><path d="M900 238L911 323L900 198Z" fill="#715df2" stroke="#715df2"></path><path d="M900 198L911 323L900 174Z" fill="#4252ca" stroke="#4252ca"></path><path d="M841 498L900 381L829 493Z" fill="#001122" stroke="#001122"></path><path d="M900 353L900 381L911 323Z" fill="#001122" stroke="#001122"></path><path d="M0 80L-10 134L0 130Z" fill="#003574" stroke="#003574"></path><path d="M0 130L-10 134L0 141Z" fill="#715df2" stroke="#715df2"></path><path d="M0 141L-10 134L0 237Z" fill="#002d5f" stroke="#002d5f"></path><path d="M0 237L-10 134L0 272Z" fill="#00244a" stroke="#00244a"></path><path d="M0 272L-8 420L0 348Z" fill="#00244a" stroke="#00244a"></path><path d="M0 348L-8 420L0 361Z" fill="#002d5f" stroke="#002d5f"></path><path d="M-8 420L62 524L72 447Z" fill="#00244a" stroke="#00244a"></path><path d="M161 581L93 600L183 600Z" fill="#003574" stroke="#003574"></path><path d="M144 0L40 0L79 6Z" fill="#001b35" stroke="#001b35"></path><path d="M79 6L0 80L110 122Z" fill="#001b35" stroke="#001b35"></path><path d="M276 -9L40 0L144 0Z" fill="#17459f" stroke="#17459f"></path><path d="M40 0L0 80L79 6Z" fill="#003574" stroke="#003574"></path><path d="M773 584L796 600L841 498Z" fill="#00244a" stroke="#00244a"></path><path d="M738 610L777 600L773 584Z" fill="#2d4cb5" stroke="#2d4cb5"></path><path d="M-10 134L-8 420L0 272Z" fill="#003d8a" stroke="#003d8a"></path><path d="M0 361L-8 420L66 367Z" fill="#003574" stroke="#003574"></path><path d="M900 7L873 0L867 71Z" fill="#002d5f" stroke="#002d5f"></path><path d="M867 71L873 0L834 20Z" fill="#003574" stroke="#003574"></path><path d="M834 20L873 0L768 0Z" fill="#003574" stroke="#003574"></path><path d="M768 0L873 0L276 -9Z" fill="#715df2" stroke="#715df2"></path><path d="M738 610L796 600L777 600Z" fill="#003574" stroke="#003574"></path><path d="M777 600L796 600L773 584Z" fill="#001b35" stroke="#001b35"></path><path d="M841 498L900 491L900 381Z" fill="#001122" stroke="#001122"></path><path d="M90 600L93 600L62 524Z" fill="#4252ca" stroke="#4252ca"></path><path d="M62 524L93 600L113 511Z" fill="#003574" stroke="#003574"></path><path d="M183 600L79 610L217 600Z" fill="#001b35" stroke="#001b35"></path><path d="M79 610L90 600L62 524Z" fill="#00244a" stroke="#00244a"></path><path d="M93 600L79 610L183 600Z" fill="#5958de" stroke="#5958de"></path><path d="M900 174L900 7L867 71Z" fill="#001122" stroke="#001122"></path><path d="M911 323L900 7L900 174Z" fill="#001b35" stroke="#001b35"></path><path d="M276 -9L0 0L40 0Z" fill="#17459f" stroke="#17459f"></path><path d="M40 0L0 0L0 80Z" fill="#001122" stroke="#001122"></path><path d="M0 80L0 0L-10 134Z" fill="#715df2" stroke="#715df2"></path><path d="M900 500L900 491L841 498Z" fill="#001122" stroke="#001122"></path><path d="M900 381L900 491L911 323Z" fill="#003d8a" stroke="#003d8a"></path><path d="M911 323L900 0L900 7Z" fill="#00244a" stroke="#00244a"></path><path d="M900 7L900 0L873 0Z" fill="#001b35" stroke="#001b35"></path><path d="M873 0L900 0L276 -9Z" fill="#00244a" stroke="#00244a"></path><path d="M0 575L79 610L62 524Z" fill="#2d4cb5" stroke="#2d4cb5"></path><path d="M90 600L79 610L93 600Z" fill="#002d5f" stroke="#002d5f"></path><path d="M632 609L79 610L738 610Z" fill="#4252ca" stroke="#4252ca"></path><path d="M900 519L900 500L841 498Z" fill="#00244a" stroke="#00244a"></path><path d="M900 491L900 500L911 323Z" fill="#001b35" stroke="#001b35"></path><path d="M900 600L900 519L841 498Z" fill="#002d5f" stroke="#002d5f"></path><path d="M900 500L900 519L911 323Z" fill="#003d8a" stroke="#003d8a"></path><path d="M-8 420L0 542L62 524Z" fill="#4252ca" stroke="#4252ca"></path><path d="M-8 420L0 575L0 542Z" fill="#00244a" stroke="#00244a"></path><path d="M0 542L0 575L62 524Z" fill="#003d8a" stroke="#003d8a"></path><path d="M-8 420L0 600L0 575Z" fill="#4252ca" stroke="#4252ca"></path><path d="M0 575L0 600L79 610Z" fill="#2d4cb5" stroke="#2d4cb5"></path><path d="M738 610L900 600L796 600Z" fill="#2d4cb5" stroke="#2d4cb5"></path><path d="M796 600L900 600L841 498Z" fill="#715df2" stroke="#715df2"></path><path d="M900 519L900 600L911 323Z" fill="#2d4cb5" stroke="#2d4cb5"></path></g></svg>